<?xml version="1.0" standalone="no"?>
<!DOCTYPE svg PUBLIC "-//W3C//DTD SVG 20010904//EN"
 "http://www.w3.org/TR/2001/REC-SVG-20010904/DTD/svg10.dtd">
<svg version="1.0" xmlns="http://www.w3.org/2000/svg"
 width="2100.000000pt" height="2100.000000pt" viewBox="0 0 2100.000000 2100.000000"
 preserveAspectRatio="xMidYMid meet">

<g transform="translate(0.000000,2100.000000) scale(0.100000,-0.100000)"
fill="#000000" stroke="none">
<path style="fill:crimson;" d="M10325 20733 c-733 -21 -1480 -124 -2199 -304 -2170 -544 -4120
-1816 -5508 -3596 -719 -921 -1260 -1930 -1629 -3033 -280 -840 -433 -1635
-501 -2600 -15 -225 -15 -964 0 -1190 26 -373 59 -674 108 -990 323 -2091
1324 -4057 2834 -5570 1177 -1180 2610 -2046 4194 -2536 708 -219 1403 -350
2221 -420 256 -21 982 -30 1270 -15 2046 107 3964 803 5585 2027 1318 995
2391 2312 3075 3773 646 1380 965 2811 965 4326 0 2550 -941 4963 -2671 6850
-367 400 -779 781 -1219 1126 -1025 806 -2185 1399 -3450 1764 -971 281 -2058
418 -3075 388z m1055 -247 c1246 -108 2345 -398 3420 -901 2596 -1214 4550
-3504 5339 -6255 243 -848 362 -1661 378 -2580 17 -978 -107 -1923 -377 -2875
-228 -805 -587 -1630 -1027 -2365 -417 -694 -907 -1322 -1488 -1906 -1073
-1078 -2374 -1892 -3810 -2384 -1599 -547 -3325 -675 -5005 -368 -1305 237
-2578 753 -3684 1491 -333 222 -563 394 -854 637 -947 790 -1735 1740 -2329
2805 -1011 1814 -1423 3896 -1182 5975 210 1821 948 3587 2095 5019 740 922
1627 1703 2622 2305 1354 819 2881 1303 4437 1406 88 6 183 12 210 14 28 2
280 2 560 1 366 -2 562 -7 695 -19z"/>
<path style="fill:crimson;" d="M9345 19814 c-82 -18 -304 -110 -390 -162 -106 -64 -279 -254 -364
-401 -22 -37 -56 -106 -76 -152 -20 -46 -54 -120 -75 -164 -74 -155 -246 -699
-320 -1015 -43 -183 -34 -424 24 -606 37 -115 176 -324 281 -422 187 -174 405
-280 722 -349 l126 -28 -64 -58 c-35 -32 -145 -122 -243 -200 -99 -78 -256
-209 -350 -291 -94 -82 -225 -192 -291 -245 -66 -52 -212 -186 -325 -296 -113
-111 -283 -275 -378 -365 -95 -90 -203 -197 -240 -239 -37 -42 -81 -89 -98
-106 -55 -54 -302 -371 -367 -472 -69 -106 -277 -512 -326 -633 -16 -41 -48
-115 -71 -165 -149 -322 -234 -987 -185 -1445 7 -74 17 -189 21 -255 4 -66 11
-122 15 -126 5 -3 13 -61 19 -128 20 -240 87 -518 189 -778 38 -98 88 -232
111 -298 71 -205 179 -413 442 -853 l79 -134 -11 -71 c-6 -40 -20 -113 -30
-163 -21 -100 -61 -387 -90 -649 -31 -275 -25 -673 15 -915 29 -179 91 -430
154 -615 11 -33 30 -98 42 -145 32 -121 472 -1001 595 -1188 69 -106 84 -136
73 -143 -35 -21 -219 -81 -341 -110 -73 -17 -187 -46 -253 -65 -66 -18 -149
-40 -185 -48 -36 -8 -175 -39 -310 -70 -135 -31 -253 -56 -262 -56 -14 0 -26
-16 -15 -21 18 -9 1016 -7 1281 2 l348 12 119 -126 c153 -161 735 -704 840
-783 612 -460 858 -633 1059 -746 63 -36 156 -88 205 -115 50 -28 160 -91 245
-140 85 -49 243 -136 350 -193 107 -57 259 -138 337 -181 289 -159 756 -380
1173 -556 243 -102 917 -356 1070 -402 284 -86 583 -172 586 -168 2 2 -15 58
-37 125 -27 80 -46 123 -57 126 -9 3 -127 37 -262 76 -290 83 -259 72 -769
268 -379 144 -992 407 -1231 527 -58 29 -186 97 -285 150 -99 54 -279 150
-400 215 -121 64 -330 180 -465 257 -135 77 -292 166 -350 198 -126 71 -384
242 -535 355 -60 46 -162 122 -225 170 -63 47 -167 125 -230 173 -63 47 -165
133 -226 189 -370 341 -594 553 -594 559 0 3 39 10 88 14 48 3 143 13 212 21
69 8 142 14 163 14 22 0 66 7 99 16 33 8 134 26 224 39 115 17 184 33 236 54
40 16 127 51 193 77 173 67 295 131 446 233 310 208 486 379 816 790 6 8 137
-53 193 -91 34 -22 70 -38 87 -38 16 0 125 -40 243 -88 239 -98 330 -131 630
-226 167 -53 637 -190 803 -235 l38 -10 -24 42 c-13 23 -39 81 -57 130 l-34
87 -65 20 c-36 10 -138 39 -226 64 -422 119 -883 280 -1164 406 -49 22 -94 40
-101 40 -6 0 -50 19 -96 42 -55 27 -81 45 -75 52 275 360 423 587 646 992 169
306 255 476 310 617 24 62 84 195 133 297 49 102 111 236 136 299 26 63 79
168 118 235 39 67 112 191 161 276 190 330 241 403 353 511 80 75 117 104 362
278 l91 64 75 226 c93 280 192 611 201 672 l7 47 -63 21 c-174 58 -293 0 -574
-283 -241 -242 -278 -299 -572 -889 -267 -536 -392 -771 -548 -1037 -34 -58
-111 -190 -170 -295 -59 -104 -129 -222 -155 -261 -27 -38 -98 -148 -160 -244
-61 -95 -143 -214 -183 -264 -39 -50 -94 -123 -122 -162 -27 -39 -88 -116
-134 -170 -45 -54 -114 -142 -151 -194 -37 -52 -82 -108 -100 -125 -18 -16
-88 -92 -157 -167 -69 -76 -129 -138 -133 -138 -8 0 -318 178 -555 320 -71 42
-157 92 -190 110 -94 51 -151 88 -280 180 -66 48 -163 112 -215 144 -197 121
-370 256 -575 446 -60 56 -162 148 -225 204 -63 55 -189 173 -280 261 -91 89
-209 201 -264 250 -94 85 -360 390 -352 404 2 3 49 80 103 171 55 91 122 205
149 254 69 126 195 269 518 591 310 309 559 535 800 729 87 70 255 209 373
309 118 100 225 187 237 192 12 6 44 29 71 52 26 24 95 75 154 114 58 40 131
93 161 119 30 25 96 74 145 108 50 34 140 104 200 157 287 250 445 370 675
517 30 19 84 59 120 90 36 30 80 63 98 72 32 17 35 16 100 -10 86 -35 213 -44
293 -20 64 18 165 76 222 127 l41 36 -24 59 c-13 32 -52 116 -87 185 -54 107
-62 130 -54 151 18 47 68 51 104 8 24 -28 137 -250 137 -268 0 -5 8 -16 18
-25 18 -16 21 -15 55 10 20 16 39 37 42 48 8 27 -35 145 -96 267 -27 54 -49
109 -49 122 0 33 25 56 61 56 36 0 62 -39 132 -195 61 -139 61 -139 78 -143 8
-1 31 12 51 31 35 32 36 35 27 75 -12 54 -47 146 -98 255 -23 49 -41 97 -41
107 0 46 71 67 103 32 19 -20 88 -167 122 -257 13 -34 30 -61 39 -63 21 -4 73
33 81 57 10 33 -22 146 -81 277 -37 84 -54 134 -50 149 8 30 57 51 86 35 23
-13 75 -118 125 -255 19 -52 39 -91 48 -93 8 -2 28 9 46 23 24 21 31 35 31 64
0 56 -25 142 -81 273 -49 115 -50 120 -34 144 21 32 40 39 70 26 30 -14 67
-85 119 -232 47 -132 63 -145 111 -89 25 30 26 37 20 88 -9 70 -37 163 -81
262 -39 88 -42 119 -15 143 32 29 72 17 98 -29 32 -57 73 -167 98 -263 l22
-84 61 57 c81 75 137 161 168 260 66 213 29 436 -129 755 -51 104 -84 158
-117 191 -72 72 -169 96 -259 65 -45 -17 -146 -82 -175 -115 -40 -44 -106 -15
-106 47 0 27 10 40 68 88 91 76 175 115 248 116 l57 1 -24 19 c-43 35 -141 77
-194 83 -62 8 -160 -14 -222 -50 -23 -14 -70 -48 -104 -75 -34 -28 -68 -50
-76 -50 -21 0 -53 38 -53 64 0 27 70 92 156 145 60 36 161 64 215 59 22 -2 39
-1 39 2 0 18 -102 53 -166 58 -111 7 -219 -36 -332 -132 -30 -25 -62 -46 -71
-46 -22 0 -51 30 -51 52 0 19 78 90 138 125 24 14 41 27 39 29 -5 6 -106 -30
-157 -56 -48 -23 -190 -128 -190 -139 0 -3 29 -21 64 -39 35 -18 85 -46 110
-63 44 -27 47 -32 44 -67 -2 -28 -9 -40 -29 -49 -24 -12 -36 -8 -145 48 -96
50 -124 60 -151 56 -39 -7 -96 -44 -90 -60 2 -6 43 -35 91 -63 111 -65 131
-84 122 -118 -3 -14 -18 -33 -32 -43 -26 -16 -28 -16 -68 7 -184 107 -240 121
-295 74 -17 -14 -31 -29 -31 -34 0 -5 35 -29 79 -54 115 -66 143 -92 139 -130
-2 -21 -11 -35 -31 -46 -31 -17 -22 -20 -174 69 -39 24 -89 45 -111 48 -33 4
-44 1 -72 -24 -21 -19 -31 -36 -28 -45 4 -8 33 -30 65 -48 95 -53 143 -97 143
-130 0 -34 -23 -60 -54 -60 -12 0 -53 21 -91 46 -97 64 -170 97 -197 89 -27
-8 -78 -54 -78 -69 1 -6 44 -40 97 -76 52 -35 102 -74 110 -86 26 -41 -21
-102 -67 -86 -8 3 -42 24 -75 47 -150 105 -192 116 -244 64 -17 -17 -31 -34
-31 -39 0 -5 47 -43 105 -85 57 -43 107 -85 110 -95 9 -28 -12 -69 -39 -76
-30 -7 -44 0 -168 92 -56 41 -108 74 -117 74 -30 0 -231 -181 -267 -240 -90
-147 -64 -318 90 -573 33 -56 82 -130 109 -164 26 -34 47 -66 47 -71 0 -12
-91 -82 -223 -172 -60 -40 -143 -105 -185 -145 -42 -39 -147 -123 -232 -187
-85 -64 -189 -146 -230 -182 -41 -36 -160 -135 -265 -219 -104 -85 -273 -229
-375 -320 -166 -150 -306 -266 -692 -574 -219 -174 -308 -261 -571 -561 -33
-37 -77 -93 -98 -124 -22 -32 -72 -93 -112 -135 -225 -242 -346 -462 -481
-874 l-41 -126 -105 181 c-156 271 -243 446 -295 596 -26 74 -76 209 -111 298
-92 233 -157 497 -175 707 -24 300 -3 576 61 777 4 16 4 30 0 33 -18 11 100
321 220 575 90 192 153 300 219 380 25 30 263 272 528 537 466 465 584 573
888 814 66 53 165 136 220 185 106 94 301 260 423 358 40 32 110 93 155 135
45 42 134 112 197 155 147 102 332 240 440 330 170 141 498 434 635 568 l141
137 -3 -282 c-2 -155 -8 -353 -13 -439 -11 -171 -4 -351 14 -345 14 5 43 81
116 297 114 339 122 376 120 537 -1 147 32 500 51 538 5 11 36 38 67 60 107
74 274 258 471 520 252 334 290 398 386 645 110 282 296 882 320 1029 10 60
-9 46 -45 -33 -18 -40 -55 -90 -107 -146 -44 -47 -121 -137 -172 -200 -98
-121 -287 -321 -330 -348 -72 -46 -261 -199 -379 -306 -74 -67 -160 -145 -193
-174 l-59 -54 6 49 c3 26 13 89 21 138 8 50 17 180 20 290 5 193 4 206 -26
375 -18 96 -39 200 -47 230 -26 90 -139 316 -218 435 -115 171 -223 268 -399
357 -126 63 -236 99 -422 139 -129 27 -175 32 -325 35 -131 3 -192 0 -245 -12z
m-35 -1133 c126 -10 407 -69 504 -106 180 -68 361 -183 449 -285 70 -82 171
-246 237 -384 74 -156 93 -203 81 -210 -4 -3 -113 -19 -242 -37 -216 -29 -249
-31 -429 -26 -182 5 -206 8 -365 45 -213 50 -327 88 -453 151 -106 53 -272
172 -338 242 -70 74 -242 319 -267 380 l-15 37 136 60 c138 60 330 119 432
132 80 11 140 11 270 1z m3140 -3654 c184 -146 276 -250 388 -434 68 -113 71
-128 39 -160 -36 -36 -70 -25 -105 33 -131 219 -224 327 -401 469 -61 48 -112
95 -112 104 -4 49 13 71 55 71 24 0 55 -19 136 -83z m-243 -158 c97 -76 219
-194 284 -275 66 -83 189 -283 189 -307 0 -30 -29 -57 -61 -57 -31 0 -52 17
-76 63 -31 61 -131 202 -197 279 -37 43 -118 121 -181 173 -122 102 -136 125
-98 167 27 30 58 21 140 -43z m-166 -225 c55 -48 132 -123 171 -168 94 -109
248 -341 248 -374 0 -50 -54 -80 -92 -49 -8 6 -41 53 -73 102 -116 181 -230
311 -381 437 -70 58 -75 64 -72 97 4 43 37 65 75 50 13 -5 69 -48 124 -95z
m-264 -143 c102 -89 223 -216 290 -306 73 -97 183 -264 183 -277 0 -36 -48
-73 -80 -63 -11 4 -57 61 -102 128 -127 187 -239 314 -390 443 -61 53 -66 74
-30 117 26 30 58 20 129 -42z m-230 -170 c26 -21 89 -81 139 -132 132 -137
344 -427 344 -472 0 -30 -29 -57 -60 -57 -32 0 -47 16 -135 145 -105 155 -168
230 -302 362 -108 105 -124 125 -118 145 19 61 63 65 132 9z m-669 -120 c3
-17 -20 -47 -91 -120 -148 -153 -183 -249 -138 -376 33 -91 35 -103 11 -65
-44 69 -73 161 -73 237 0 61 4 81 33 139 33 68 156 209 195 224 26 10 59 -10
63 -39z m479 -89 c111 -98 266 -281 396 -469 66 -93 73 -132 32 -159 -39 -25
-64 -8 -135 93 -111 155 -201 265 -327 394 -77 79 -123 134 -123 147 0 22 43
62 66 62 8 0 49 -31 91 -68z m-323 -38 c31 -31 20 -68 -38 -123 -195 -183
-218 -283 -115 -494 18 -36 20 -50 11 -59 -18 -18 -58 24 -97 103 -74 146 -82
251 -29 350 16 29 70 95 119 146 93 96 118 109 149 77z m238 -231 c36 -33 23
-63 -68 -157 -158 -162 -169 -235 -68 -434 50 -100 55 -115 42 -128 -21 -21
-63 -8 -91 27 -12 16 -32 42 -45 58 -50 64 -85 162 -90 248 -4 75 -2 88 24
140 18 39 61 92 128 160 106 108 130 120 168 86z m-3669 -4965 c57 -68 149
-163 203 -213 54 -49 171 -159 259 -245 139 -134 314 -295 613 -564 129 -115
344 -277 479 -360 70 -44 182 -118 248 -166 143 -103 106 -80 740 -448 99 -58
188 -110 197 -117 16 -10 2 -23 -110 -107 -109 -82 -175 -124 -303 -198 -14
-8 -64 -40 -110 -71 -46 -31 -180 -109 -298 -174 -118 -65 -244 -137 -280
-160 -119 -77 -242 -133 -461 -212 -68 -24 -129 -48 -135 -52 -21 -18 -165
-76 -310 -127 l-150 -52 -93 141 c-93 142 -284 507 -377 722 -27 61 -54 119
-62 131 -7 11 -20 44 -28 72 -9 28 -42 111 -74 184 -33 73 -64 160 -71 193 -6
33 -22 92 -35 130 -13 39 -33 131 -45 205 -11 74 -25 152 -31 173 -15 57 -38
320 -45 503 -6 184 15 462 45 611 12 57 39 135 72 207 28 64 53 116 55 116 1
0 49 -55 107 -122z"/>
</g>
</svg>
